<svg width="92" height="28" viewBox="0 0 92 28" fill="none" xmlns="http://www.w3.org/2000/svg">
<path d="M6.84 4.96H9.384L16.008 22H13.176L11.376 17.368H4.8L3.024 22H0.168L6.84 4.96ZM10.848 15.376L8.112 7.912L5.28 15.376H10.848ZM28.0753 22H25.4353V14.968C25.4353 13.784 25.2433 12.928 24.8593 12.4C24.4913 11.856 23.9393 11.584 23.2033 11.584C22.6913 11.584 22.1793 11.712 21.6673 11.968C21.1713 12.224 20.7233 12.576 20.3233 13.024C19.9233 13.472 19.6353 13.976 19.4593 14.536V22H16.8193V9.448H19.2193V11.968C19.6993 11.136 20.3953 10.472 21.3073 9.976C22.2193 9.48 23.2273 9.232 24.3313 9.232C25.3233 9.232 26.0913 9.472 26.6353 9.952C27.1793 10.416 27.5553 11.032 27.7633 11.8C27.9713 12.568 28.0753 13.416 28.0753 14.344V22ZM29.2676 18.328C29.2676 17.528 29.4916 16.832 29.9396 16.24C30.3876 15.632 31.0116 15.168 31.8116 14.848C32.6276 14.512 33.5636 14.344 34.6196 14.344C35.1796 14.344 35.7476 14.392 36.3236 14.488C36.9156 14.568 37.4356 14.688 37.8836 14.848V14.056C37.8836 13.176 37.6196 12.488 37.0916 11.992C36.5636 11.496 35.8036 11.248 34.8116 11.248C34.1236 11.248 33.4596 11.368 32.8196 11.608C32.1796 11.848 31.5156 12.2 30.8276 12.664L29.9396 10.888C30.7716 10.344 31.6036 9.936 32.4356 9.664C33.2836 9.376 34.1716 9.232 35.0996 9.232C36.7796 9.232 38.0996 9.68 39.0596 10.576C40.0356 11.456 40.5236 12.712 40.5236 14.344V19.024C40.5236 19.328 40.5716 19.544 40.6676 19.672C40.7796 19.8 40.9636 19.872 41.2196 19.888V22C40.9796 22.048 40.7636 22.08 40.5716 22.096C40.3796 22.112 40.2196 22.12 40.0916 22.12C39.5156 22.12 39.0836 21.984 38.7956 21.712C38.5236 21.424 38.3636 21.104 38.3156 20.752L38.2436 20.032C37.6996 20.736 37.0036 21.28 36.1556 21.664C35.3076 22.048 34.4516 22.24 33.5876 22.24C32.7556 22.24 32.0116 22.072 31.3556 21.736C30.6996 21.384 30.1876 20.912 29.8196 20.32C29.4516 19.728 29.2676 19.064 29.2676 18.328ZM37.2596 19.096C37.6756 18.68 37.8836 18.288 37.8836 17.92V16.48C36.9396 16.128 35.9796 15.952 35.0036 15.952C34.0436 15.952 33.2596 16.152 32.6516 16.552C32.0596 16.936 31.7636 17.456 31.7636 18.112C31.7636 18.656 31.9796 19.16 32.4116 19.624C32.8596 20.072 33.4996 20.296 34.3316 20.296C34.8916 20.296 35.4356 20.184 35.9636 19.96C36.4916 19.736 36.9236 19.448 37.2596 19.096ZM42.7905 4.48H45.4305V18.376C45.4305 19.016 45.5265 19.424 45.7185 19.6C45.9105 19.776 46.1505 19.864 46.4385 19.864C46.7585 19.864 47.0625 19.832 47.3505 19.768C47.6385 19.704 47.8785 19.624 48.0705 19.528L48.4545 21.616C48.0705 21.776 47.6145 21.912 47.0865 22.024C46.5585 22.136 46.0865 22.192 45.6705 22.192C44.7745 22.192 44.0705 21.944 43.5585 21.448C43.0465 20.936 42.7905 20.232 42.7905 19.336V4.48ZM48.9182 24.952C49.1582 25 49.3902 25.04 49.6142 25.072C49.8542 25.104 50.0462 25.12 50.1902 25.12C50.4622 25.12 50.6942 25.032 50.8862 24.856C51.0942 24.696 51.3022 24.392 51.5102 23.944C51.7182 23.496 51.9742 22.848 52.2782 22L47.1182 9.448H49.8782L53.7182 19.312L57.1262 9.448H59.6702L53.9822 24.904C53.7262 25.608 53.2782 26.208 52.6382 26.704C52.0142 27.2 51.2062 27.448 50.2142 27.448C50.0222 27.448 49.8222 27.432 49.6142 27.4C49.4062 27.368 49.1742 27.32 48.9182 27.256V24.952ZM59.7392 20.344L67.1792 11.32H60.0032V9.448H70.0592V11.104L62.6672 20.128H70.1312V22H59.7392V20.344ZM76.9562 22.24C75.6442 22.24 74.5002 21.944 73.5242 21.352C72.5642 20.744 71.8202 19.952 71.2922 18.976C70.7642 17.984 70.5002 16.904 70.5002 15.736C70.5002 14.568 70.7642 13.496 71.2922 12.52C71.8362 11.528 72.5882 10.736 73.5482 10.144C74.5242 9.536 75.6602 9.232 76.9562 9.232C78.2522 9.232 79.3802 9.536 80.3402 10.144C81.3162 10.736 82.0682 11.528 82.5962 12.52C83.1402 13.496 83.4122 14.568 83.4122 15.736C83.4122 16.904 83.1482 17.984 82.6202 18.976C82.0922 19.952 81.3402 20.744 80.3642 21.352C79.4042 21.944 78.2682 22.24 76.9562 22.24ZM73.2122 15.76C73.2122 16.56 73.3802 17.28 73.7162 17.92C74.0522 18.56 74.5002 19.064 75.0602 19.432C75.6202 19.8 76.2522 19.984 76.9562 19.984C77.6442 19.984 78.2682 19.8 78.8282 19.432C79.4042 19.048 79.8602 18.536 80.1962 17.896C80.5322 17.256 80.7002 16.536 80.7002 15.736C80.7002 14.936 80.5322 14.216 80.1962 13.576C79.8602 12.936 79.4042 12.432 78.8282 12.064C78.2682 11.68 77.6442 11.488 76.9562 11.488C76.2682 11.488 75.6362 11.68 75.0602 12.064C74.5002 12.432 74.0522 12.944 73.7162 13.6C73.3802 14.24 73.2122 14.96 73.2122 15.76Z" fill="currentColor"/>
<circle cx="88" cy="18" r="3" stroke="currentColor" stroke-width="2"/>
</svg>
